PathFileType	4	(X/Y/Z)	RBDS014\RBDS014runT25.trc
DataRate	CameraRate	NumFrames	NumMarkers	Units	OrigDataRate	OrigDataStartFrame	OrigNumFrames
150.000000	150.000000	6	33	mm	150.000000	2250	4500
Frame#	Time	L.ASIS			L.Heel.Bottom			L.Heel.Lateral			L.Heel.Top			L.Iliac.Crest			L.MT1			L.MT5			L.PSIS			L.Shank.Bottom.Lateral			L.Shank.Bottom.Medial			L.Shank.Top.Lateral			L.Shank.Top.Medial			L.Thigh.Bottom.Lateral			L.Thigh.Bottom.Medial			L.Thigh.Top.Lateral			L.Thigh.Top.Medial			R.ASIS			R.ASY			R.Heel.Bottom			R.Heel.Lateral			R.Heel.Top			R.Iliac.Crest			R.MT1			R.MT5			R.PSIS			R.Shank.Bottom.Lateral			R.Shank.Bottom.Medial			R.Shank.Top.Lateral			R.Shank.Top.Medial			R.Thigh.Bottom.Lateral			R.Thigh.Bottom.Medial			R.Thigh.Top.Lateral			R.Thigh.Top.Medial			
		X1	Y1	Z1	X2	Y2	Z2	X3	Y3	Z3	X4	Y4	Z4	X5	Y5	Z5	X6	Y6	Z6	X7	Y7	Z7	X8	Y8	Z8	X9	Y9	Z9	X10	Y10	Z10	X11	Y11	Z11	X12	Y12	Z12	X13	Y13	Z13	X14	Y14	Z14	X15	Y15	Z15	X16	Y16	Z16	X17	Y17	Z17	X18	Y18	Z18	X19	Y19	Z19	X20	Y20	Z20	X21	Y21	Z21	X22	Y22	Z22	X23	Y23	Z23	X24	Y24	Z24	X25	Y25	Z25	X26	Y26	Z26	X27	Y27	Z27	X28	Y28	Z28	X29	Y29	Z29	X30	Y30	Z30	X31	Y31	Z31	X32	Y32	Z32	X33	Y33	Z33	

2251	15	2130.977318376596	1115.978186991633	928.9168560283262	1499.924074152368	192.2764129306863	1007.502410425328	1527.752835598687	189.4719806493039	963.6034678240625	1537.875977807121	224.4953765216665	1000.895750912617	2082.19747274873	1189.653664645653	899.5605885643075	1692.804592806528	59.42915375544807	1044.403441569897	1644.891322938302	67.48225267579431	929.5882776004737	1960.827089762793	1151.221135297768	1009.548708793865	1648.198097302217	288.0038945825966	929.0622740653802	1616.396883236362	310.5479458852129	968.7289643464627	1679.255378120829	360.7701678739366	913.4020617490522	1647.933294119468	383.2734631029714	950.9038983901403	1929.254860548283	756.5478337454812	874.1570363551579	1877.309960015275	774.3414690481612	921.9076182436656	1950.245289220239	864.8925904308749	863.3976335387955	1905.705482244018	880.7586935353726	913.3429951100868	2146.411591460841	1128.00807276391	1167.099060215476	2323.976245138432	144.4546672582662	1091.520370108156	2136.506430598639	66.00235756495941	1058.346277737187	2153.427627670344	87.35396446609435	1100.702091635415	2140.178352124093	117.8694341337137	1061.521671465284	2081.498207315785	1204.802197298402	1197.531354560475	2367.38407919211	107.4890750147267	1041.857813322216	2324.714233735415	84.72658149209141	1153.832420132363	1971.035962927379	1160.096864757518	1101.903650247376	2191.873237331274	238.8317009629688	1130.554462532367	2164.048573914372	249.6685440639668	1088.741405655608	2190.124881982389	321.7593713002798	1150.90128584731	2161.002945769991	328.6412465471548	1107.308069724132	2233.268299581812	749.1986455145823	1192.519643421121	2170.264338500549	717.2058412454729	1172.722893692885	2175.98643352834	839.8665472009849	1216.301465670334	2116.782899747809	810.8072067428908	1194.572357491395	
2252	15.00666666666667	2133.217940120635	1116.899324090708	929.1401804594897	1491.954442365279	202.9242446857749	1007.168028523678	1519.617332823924	199.1273129069434	963.2645985586439	1531.124846289188	233.6911659461246	1000.508385052362	2084.618716856987	1190.582774941936	899.8994741170515	1679.862249567602	62.88513390737888	1043.65383148314	1632.111948953307	72.14000640878436	929.1612595981319	1962.937540110502	1152.063491135354	1009.162289267018	1641.158581862004	294.1114996008538	928.6933424074891	1609.639127886833	316.8207619486241	968.5431910953522	1672.989059237331	366.6050644486581	913.3764355109106	1641.959103552017	389.2684319449606	951.017160767031	1928.210540075792	759.4278458249096	874.5435558696762	1876.530814888911	778.2433620562535	922.3158863203629	1950.731543113396	867.4011738293826	863.2145561680921	1906.654737315782	884.1491520030427	913.3174316795056	2147.521099199092	1128.667353328982	1167.166522748455	2343.305588802537	145.4612818890588	1089.904385849594	2160.148746822577	57.27457780879968	1057.215659832526	2176.22919424017	78.9051150233508	1099.779876491122	2160.905415499865	109.2097983860775	1061.09287143084	2082.412168921129	1205.457364646343	1197.746272181329	2388.184567068775	111.7763721695495	1039.327957074849	2347.865204425412	85.00802879714547	1151.516101383748	1972.586716800552	1161.044537846529	1101.594947799818	2206.546847062098	233.0161631897654	1130.429332539946	2178.149924574473	242.8399177019675	1088.74265785519	2200.797783136222	315.5271380154569	1151.373258486385	2171.213014552924	321.3715477634502	1107.959913081696	2230.101751130655	746.8829923667358	1194.182393227906	2166.816206099301	716.0435962706687	1173.64222633288	2174.229692949521	838.4683325323963	1217.583970197806	2114.733635501046	810.5378598715116	1195.195929108417	
2253	15.01333333333333	2135.439912994951	1117.428151019533	929.3762220390843	1484.396263387772	213.6024873486946	1007.201066765008	1511.739881742867	208.893654287595	963.2169469941026	1524.724651404803	242.9004976323205	1000.40956680293	2086.946234841123	1191.130238302531	900.2571947141599	1667.195075797339	66.66994100282334	1042.732854628804	1619.419844669155	77.20554120189549	928.7266453214514	1964.962160295225	1152.390874932348	1008.82381296626	1634.537969644548	300.0290555777543	928.4667522958416	1603.320262652187	323.0411325065608	968.4189552186238	1667.334201214045	372.1222495807406	913.4042422307878	1636.64035709941	395.0839188292224	951.1329810368198	1928.00346697244	761.601355773584	874.8838039091459	1876.473716478051	781.3148082006434	922.5784242815063	1951.89402208579	869.2095597210117	863.0449964078261	1908.083613845964	886.7595535371107	913.1343774144477	2148.604398386858	1128.839911409166	1167.270243209733	2360.799532544366	146.8023313001138	1088.542161094384	2182.060094444422	49.64548515671015	1056.317677901533	2197.34773061751	71.51852345213197	1099.066747058674	2180.083182929494	101.5332312351846	1060.831016670507	2083.214473527878	1205.432274074145	1198.050838508626	2406.930726687592	116.2768963263865	1037.12724400094	2368.974970324527	85.84077267921268	1149.519447843791	1974.064019830359	1161.408209781816	1101.346207241905	2219.997055927724	227.8464702778076	1130.425703454826	2191.080720939296	236.6846465297395	1088.851410009518	2210.579290916897	309.8065434213905	1151.867543933476	2180.52402282463	314.6504485168185	1108.659261702447	2227.029369787615	744.2413385608312	1195.920831991418	2163.535771124969	714.5593901890409	1174.482024684679	2172.482189510553	836.6694725854221	1218.974784671926	2112.781274192801	809.8608155598306	1195.787677557691	
2254	15.02	2137.641572177141	1117.536443867042	929.6460395450827	1477.207173251572	224.2776694383551	1007.612005000142	1504.078486157738	218.7447888983486	963.466405816719	1518.630045698172	252.0942093393213	1000.602017593811	2089.192865474443	1191.294435368831	900.6542977889658	1654.79235595336	70.73214922198083	1041.600916870472	1606.786223609636	82.68757527027108	928.2389342133332	1966.906530268911	1152.222497037165	1008.517945338426	1628.300688237042	305.747213177788	928.3632431963715	1597.430649156694	329.200479421161	968.3512348125442	1662.265235448911	377.2979692491936	913.4674332348047	1631.978860344568	400.6975539924217	951.248440592643	1928.634483981487	762.9533738361347	875.1558595136713	1877.124526817036	783.4225150469724	922.6637156699117	1953.709437190487	870.2243523409418	862.8989596592336	1909.943689515962	888.4781299798582	912.7937671576803	2149.673205262359	1128.564791739976	1167.43261063297	2376.238673645467	148.2392207349636	1087.483782015932	2201.820217529327	43.06089935468669	1055.582780559971	2216.355592147757	65.16601564568255	1098.489841609484	2197.371118865782	94.82236329072698	1060.626978195815	2083.913344536602	1204.773552420697	1198.44180533748	2423.44683226271	120.6301008250138	1035.378745693246	2387.658580441203	86.98953872166076	1147.931953164424	1975.475353866821	1161.213617062684	1101.144968920483	2231.989846271062	223.2546557510927	1130.481280292982	2202.628042561715	231.1565457589802	1088.989786337757	2219.294591425901	304.591841567803	1152.309943816306	2188.788054552979	308.485962472349	1109.306956785166	2224.141430815796	741.3856798556719	1197.641322103712	2160.501557487427	712.8305502318345	1175.221658598803	2170.804955642061	834.5696743017991	1220.404987634637	2110.986341422738	808.8439938791622	1196.328399495364	
2255	15.02666666666667	2139.817541407316	1117.199687699434	929.9656734641221	1470.357103292145	234.9260360765519	1008.373896250587	1496.618266059739	228.6644172843427	963.9897037704022	1512.808803321278	261.2528015738158	1001.065502721238	2091.363007178499	1191.061414076347	901.0984188432236	1642.641281289159	75.0287704810579	1040.230780143493	1594.217113160408	88.60122169937127	927.6485257900169	1968.775432131562	1151.575102743444	1008.224772480605	1622.426881606121	311.2737320582181	928.3550649906072	1591.975563693452	335.3005612103044	968.3295005054061	1657.765918537099	382.1281536875589	913.5464985235229	1627.982941867799	406.0986678803976	951.3596710794826	1930.081346119671	763.387502628177	875.3468783012017	1878.455287709942	784.4528462762264	922.5595731915175	1956.124867255034	870.3707933875475	862.7869114166703	1912.174864946192	889.2103937297964	912.3122548063809	2150.73627637869	1127.880436078061	1167.672134653743	2389.434520109716	149.4981914751668	1086.753805824597	2219.020837809518	37.45672372588188	1054.941160474751	2232.848136484734	59.79969694582416	1097.97596063592	2212.448017419897	89.05053512949326	1060.376007108996	2084.526403140297	1203.546060165522	1198.90592935212	2437.578209142589	124.442201896338	1034.167248731774	2403.568121245565	88.16653735522665	1146.809802791319	1976.826253952261	1160.490127675616	1100.972605659337	2242.311503825031	219.1396585253322	1130.531882530558	2212.5987250351	226.1834314712735	1089.080819964876	2226.782076230565	299.8427068436279	1152.633567039944	2195.873633610785	302.8606336073819	1109.810252171894	2221.517753829446	738.4085347221431	1199.255790937941	2157.775908368847	710.914925977486	1175.853717011651	2169.256600896771	832.2557353827058	1221.801040240514	2109.397121966934	807.542120139126	1196.806336503808	
2256	15.03333333333333	2141.959377789742	1116.399078668228	930.3436343272401	1463.835022722445	245.5352244342513	1009.42207340089	1489.377728776217	238.6463576665725	964.7340242959917	1507.248430211092	270.3678342861897	1001.756266161268	2093.450480431472	1190.40760269717	901.5826948222438	1630.732769769186	79.53144889364852	1038.611560718596	1581.759970409247	94.96489539941203	926.9076584012624	1970.571626162224	1150.460618340406	1007.922688989582	1616.917660518281	316.6325772541371	928.4080621824108	1586.977689369524	341.3527910311437	968.3380924692391	1653.834335912129	386.6279833278167	913.6222778047827	1624.669044200642	411.2880663757612	951.4616306790277	1932.300238943695	762.8337444331138	875.4539027390337	1880.427509441586	784.3200770937881	922.2759109779626	1959.061643788632	869.598373056122	862.7189718020345	1914.71136191102	888.8858036943741	911.723300444772	2151.796942493333	1126.820520689445	1168.001705699505	2400.237264158223	150.2908516565627	1086.348469146221	2233.287796160886	32.76617954512837	1054.330211097795	2246.467511040629	55.35751338105787	1097.459503822995	2225.02774013456	84.18588787162616	1059.989876526336	2085.077258694837	1201.825525779023	1199.422048547188	2449.19426028837	127.3150088164164	1033.529312043268	2416.415723763277	89.05385280103468	1146.169399544164	1978.118589449622	1159.266829656953	1100.806970469263	2250.780690705926	215.3790105446262	1130.517802075801	2220.828035080637	221.6758317260666	1089.056545032289	2232.902095303062	295.4919446963725	1152.785781574663	2201.670341701695	297.7368545706129	1110.093121849512	2219.227790802413	735.3790420100589	1200.692506065588	2155.408858989492	708.8482535160892	1176.384067721867	2167.891625002265	829.7950820316645	1223.094591706041	2108.050502978737	805.9914503498131	1197.218872493439	
